<svg enable-background="new 0 0 58 38" height="512" viewBox="0 0 58 38" width="512" xmlns="http://www.w3.org/2000/svg"><path d="m58 38h-42l-16-19 16-19h42z" fill="#f7e6a1"/><g fill="#dd352e"><path d="m43 28c-.256 0-.512-.098-.707-.293l-16-16c-.391-.391-.391-1.023 0-1.414.39-.391 1.024-.391 1.414 0l16 16c.391.391.391 1.023 0 1.414-.195.195-.451.293-.707.293z"/><path d="m27 28c-.256 0-.512-.098-.707-.293-.391-.391-.391-1.023 0-1.414l16-16c.39-.391 1.024-.391 1.414 0 .391.391.391 1.023 0 1.414l-16 16c-.195.195-.451.293-.707.293z"/></g></svg>