<svg id="Layer_1" enable-background="new 0 0 64 64" height="512" viewBox="0 0 64 64" width="512" xmlns="http://www.w3.org/2000/svg"><path d="m62.934 10.687h-44.758c-.314 0-.613.139-.815.379l-17.051 20.248c-.334.396-.334.976 0 1.373l17.051 20.248c.202.241.501.379.815.379h44.758c.588 0 1.066-.477 1.066-1.066v-40.496c0-.588-.477-1.065-1.066-1.065zm-15.231 29.085c.417.417.417 1.09 0 1.507-.208.208-.481.312-.753.312s-.546-.104-.753-.312l-7.772-7.772-7.772 7.772c-.208.208-.481.312-.753.312s-.546-.104-.753-.312c-.417-.417-.417-1.09 0-1.507l7.77-7.772-7.772-7.772c-.417-.417-.417-1.09 0-1.507.416-.417 1.091-.417 1.507 0l7.772 7.772 7.772-7.772c.416-.417 1.091-.417 1.507 0 .417.417.417 1.09 0 1.507l-7.772 7.772z"/></svg>